<?xml version="1.0" encoding="utf-8" ?><svg xmlns="http://www.w3.org/2000/svg" xmlns:xlink="http://www.w3.org/1999/xlink" width="1000" height="500" viewBox="0 0 1000 500"><path fill="#1D2458" transform="scale(0.488281 0.488281)" d="M331.346 320.872C336.063 319.063 340.811 317.336 345.588 315.693C372.306 306.78 399.24 306.877 426.326 318C437.693 322.668 425.34 338.649 425.859 346.894C426.067 350.184 427.741 354.776 428.873 358.199L421.597 363.073C419.202 368.371 413.789 381.61 410.34 385.123C403.434 392.157 387.429 380.824 379.189 389.85C373.537 402.852 392.377 423.511 397.206 435.967C400.1 443.432 400.422 445.224 402.028 453.163C417.966 440.926 462.15 399.888 480.351 395.214C494.668 396.17 551.672 414.909 559.471 422.182C579.874 441.209 552.485 438.178 584.328 460.316C566.864 473.777 556.951 484.438 541.274 499.511L481.838 556.644C472.892 551.52 448.559 531.51 439.338 524.226C433.079 528.059 427.521 531.484 421.541 535.729C421.695 550.492 421.492 566.446 422.921 581.077C425.203 612.788 434.336 644.807 437.978 676.07C441.392 705.379 449.35 739.618 449.979 768.657C457.652 754.527 462.948 742.798 472.995 729.825C501.54 692.965 530.455 670.468 576.78 663.746C530.75 653.32 483.173 661.671 440.01 679.503C441.919 667.326 443.544 663.472 450.401 652.972C463.714 632.585 483.201 617.651 507.482 613.367C515.452 611.96 524.642 613.155 531.924 611.741C526.019 609.899 518.658 610.675 515.327 608.64L515.745 605.15C511.259 603.615 501.98 610.778 496.407 608.145C495.22 604.637 496.133 604.316 497.425 599.983L496.525 599.307C493.24 599.897 489.894 602.898 487.132 604.995L474.094 602.82C477.615 599.477 479.338 598.626 480.397 594.154L478.911 593.41C474.578 594.653 470.135 599.152 468.578 599.5C463.155 600.715 451.394 595.273 446.49 593.04C458.803 563.262 511.468 572.584 533.232 585.602C539.542 589.376 544.346 593.047 550.057 597.686L556.476 594.308C552.331 589.959 545.886 585.609 541.14 581.653C533.566 575.342 536.8 578.454 535.851 569.982L534.517 569.285C531.28 569.126 528.021 571.741 525.156 573.569C514.652 566.285 510.792 565.619 498.668 561.591C529.401 541.853 572.05 560.193 587.132 591.551C591.623 591.744 595.64 590.607 600.012 589.62L600.438 588.963C598.766 584.71 588.575 580.207 584.086 577.773C589.425 574.327 591.691 572.916 596.352 568.436L584.048 566.584L576.396 556.697C578.359 555.469 580.265 554.367 582.266 553.215L582.524 551.478C578.117 547.497 573.796 549.307 568.329 550.2C563.328 546.648 557.625 541.967 552.712 538.133C586.704 537.038 606.972 545.296 620.527 578.478C621.788 581.564 622.991 585.271 625.863 586.651L624.344 587.072C623.004 596.901 625.436 604.421 621.321 614.384L612.998 627.516C636.068 620.03 657.465 609.397 681.325 621.36C683.871 622.636 695.774 630.245 696.758 630.481C705.941 638.139 710.299 644.813 716.972 654.658C722.377 663.587 732.385 690.254 728.509 700.018C724.499 703.065 721.001 701.215 718.213 697.557C717.153 692.606 718.973 690.488 720.279 685.38C717.007 682.172 711.672 683.554 708.494 681.175C705.265 678.757 710.695 672.18 709.838 669.032C709.626 668.254 700.626 668.912 699.54 668.413C695.718 666.657 694.722 656.783 691.715 654.485C689.477 652.774 689.473 658.029 684.153 659.339C678.275 657.847 672.648 650.53 669.406 649.182C658.793 644.769 638.279 646.223 627.831 648.208C677.764 654.548 729.219 700.358 699.299 755.39C696.97 759.674 692.094 769.286 686.81 769.279C685.791 755.419 688.108 737.216 681.797 722.841C670.449 696.993 649.836 679.666 624.725 668.728C662.742 693.14 691.086 735.899 669.456 780.971C667.229 776.084 658.607 759.496 659.518 755.897L662.632 754.101L662.865 752.916C655.818 748.737 654.65 747.675 649.595 741.221C652.503 738.134 655.905 735.182 655.994 731.232C650.445 729.702 647.029 731.36 642.244 728.439C637.447 721.015 641.435 716.727 646.56 711.476C642.225 711.295 632.435 711.338 629.575 708.818C629.077 694.63 625.068 701.816 618.913 694.562C613.991 688.76 609.705 684.1 604.056 678.76C605.206 682.629 607.127 686.831 608.712 690.58C618.417 713.537 617.584 739.606 602.54 760.116C594.346 771.286 573.656 792.02 558.926 780.866C556.079 772.747 573.809 765.765 580.007 762.544L580.02 761.446L574.473 758.792L573.893 757.141C577.847 752.474 586.104 750.472 586.603 744.503C583.548 741.159 583.143 741.834 578.263 740.173C582.664 735.421 587.257 731.789 591.998 726.536C590.678 726.135 589.367 725.707 588.065 725.251C585.086 724.194 582.184 723.097 580.771 720.17C581.974 717.012 584.661 715.89 587.784 713.614C588.475 709.372 584.364 709.818 583.594 705.652C582.783 701.263 587.759 699.747 587.444 694.755C585.175 693.801 582.9 692.862 580.618 691.941C581.082 687.194 592.001 681.962 585.275 673.526C581.633 668.958 573.193 671.496 569.026 673.678C538.052 689.892 509.132 711.935 492.997 743.744C487.86 753.827 484.21 763.646 480.242 774.216C534.437 788.194 589.789 804.991 645.862 806.021C665.144 806.375 682.631 804.701 701.772 803.5C655.892 816.284 605.075 819.682 557.679 815.719C519.836 812.555 488.555 805.006 451.545 797.899C366.162 781.502 274.702 762.762 187.898 778.818C173.55 781.472 151.936 786.55 139.335 792.623C188.995 783.257 229.119 778.553 279.657 781.63C391.083 788.414 495.287 830.714 607.756 828.782C625.311 828.48 640.072 826.648 657.378 824.358C631.302 838.86 598.111 847.499 568.758 851.721C419.594 873.172 276.962 797.201 128.481 811.876C97.6612 814.921 71.6559 824.286 43.7507 836.927C90.4061 792.469 160.98 767.725 223.658 757.343C223.132 755.623 222.578 753.912 221.995 752.211C207.191 709.204 184.931 694.977 147.176 676.622C146.768 684.075 146.297 691.523 145.763 698.967C143.723 700.698 142.378 700.158 139.147 700.334L139.271 701.05L145.156 704.994C146.072 710.118 148.109 717.324 146.112 721.687C141.082 721.962 140.894 717.845 136.576 718.168L136.335 719.841C139.506 725.176 149.004 726.59 149.209 732.308C147.296 733.431 146.649 733.734 145.058 735.247C146.924 737.611 149.375 738.016 152.343 739.008L164.4 757.814C137.174 754.906 132.131 743.913 127.17 719.449L125.822 718.805L122.194 720.698C119.69 702.161 131.954 689.126 143.115 676.238C119.116 684.818 112.644 696.735 100.152 717.557L90.8862 718.393C89.9848 720.397 94.595 724.145 94.1753 725.452C90.9213 735.592 87.9932 748.633 87.1758 758.852C73.988 738.068 74.087 715.237 89.0614 694.559C91.6795 690.944 98.5676 686.54 99.9478 683.335C95.7206 683.964 89.6549 690.404 86.4933 693.693C71.7807 709.002 71.6419 728.719 72.2106 748.618C55.0863 725.615 51.7244 701.699 70.5248 677.731C83.1075 661.689 98.5919 658.564 117.629 656.434C97.5352 653.956 90.2137 657.406 71.7774 663.606C68.5771 664.682 64.1189 662.207 61.7977 663.848L61.9622 665.294C63.9221 665.656 65.89 665.974 67.8643 666.248C67.7697 668.696 56.1377 681.45 54.3569 684.95C51.7105 690.152 49.7756 696.053 47.8457 701.496C44.1113 691.073 44.6254 686.638 46.6434 675.54C47.4126 671.311 50.9067 661.993 55.5818 659.836C56.2276 659.538 59.9123 660.631 62.3991 659.087C61.8156 656.259 60.6511 659.138 58.23 655.578C60.4886 650.41 67.3925 644.993 71.9874 641.886C74.7351 642.876 79.1621 644.858 81.8172 644.452C79.7453 642.484 78.5992 641.589 77.2264 639.003C87.5773 630.753 108.951 636.016 120.347 640.22C111.491 613.218 135.623 574.706 165.931 578.693C169.638 579.18 172.825 579.001 176.023 581.192L176.145 582.56C170.502 587.535 159.185 583.534 152.213 586.313C151.037 591.443 154.799 591.639 153.477 596.163C149.278 598.183 139.145 594.402 134.404 593.015C137.548 595.712 140.436 598.245 143.455 601.081C144.092 604.627 140.088 605.071 136.73 610.547C138.577 611.253 138.758 611.437 140.353 612.643C140.764 618.039 131.307 625.387 131.159 627.86C134.383 628.11 134.758 627.567 136.773 629.423C136.242 632.342 135.996 633.446 136.104 636.514L136.926 636.722C141.403 629.602 141.704 622.069 147.91 612.447C155.267 600.824 167.068 592.727 180.559 590.042C198.112 586.441 206.709 590.969 220.36 600.009C200.372 599.711 189.393 601.79 172.867 613.115L156.395 612.868C160.915 614.38 165.734 615.246 170.413 616.209C162.221 623.749 158.877 628.664 153.143 638.211C160.918 630.682 168.852 621.348 177.84 615.302C192.609 605.367 215.649 600.354 232.358 608.045C240.39 611.742 244.698 616.166 249.482 623.235C245.475 623.019 202.816 624.895 201.281 625.637C202.942 626.625 204.032 627.319 205.597 628.454C195.814 632.922 187.907 636.378 178.729 642.101C191.185 637.469 208.045 633.982 220.501 639.748C240.485 648.999 243.89 672.371 250.799 690.213L250.868 689.386C252.123 672.976 249.147 666.829 249.783 652.45C250.274 641.341 254.66 626.414 255.83 613.615C251.431 611.405 242.802 607.692 240.378 603.963C237.434 584.909 279.152 429.921 292.265 403.7C303.078 385.965 323.971 380.194 334.653 362.487C342.648 349.233 335.019 334.779 331.346 320.872ZM396.998 465.112C411.592 471.886 428.205 479.235 440.762 489.271C447.158 483.796 453.369 478.158 460.636 473.886C463.771 472.606 466.325 471.088 469.509 471.675C476.981 478.908 485.257 475.233 494.882 473.339C511.385 456.009 533.913 441.326 551.349 423.886C541.102 420.031 486.584 400.759 478.781 400.64C454.772 417.921 419.412 445.093 396.998 465.112ZM296.739 410.272C316.925 405.166 330.554 405.795 335.751 429.367C346.184 476.685 328.98 526.06 320.453 572.187C316.354 594.359 317.206 615.434 308.488 637.256C307.829 638.957 308.91 640.624 309.774 642.03C313.07 642.322 311.724 642.563 314.947 640.638L318.032 635.425C324.527 623.192 336.252 597.583 337.936 584.109C341.341 556.87 343.153 548.09 357.454 524.797C380.029 488.024 372.017 397.91 314.58 401.002C307.004 403.635 303.461 405.726 296.739 410.272ZM315.895 662.407C321.382 665.423 325.637 667.46 331.358 670.014C339.64 672.838 348.844 675.714 357.61 676.513C372.454 629.989 379.646 591.484 369.984 542.975C368.34 541.885 369.172 542.01 367.538 542.14C362.196 543.498 353.492 545.941 348.313 546.577C346.858 589.187 338.774 625.859 315.895 662.407ZM307.097 609.235L308.833 609.212C310.519 603.048 309.841 586.656 311.42 578.512C317.1 549.2 345.007 440.092 319.887 419.442C304.457 470.416 280.605 559.615 306.475 608.116C306.675 608.493 306.882 608.866 307.097 609.235ZM307.624 391.559C317.956 389.785 326.889 388.11 337.206 391.714C387.763 409.374 382.45 499.029 361.872 535.451C361.558 536.018 361.224 536.574 360.871 537.118C368.986 534.486 375.485 532.361 383.294 528.997L410.718 517.292C407.368 502.603 405.145 495.336 398.013 481.869C395.862 477.807 389.925 466.86 388.528 463.016C391.237 461.39 394.409 459.594 397.018 457.898C390.21 428.425 360.313 384.032 326.78 385.226C319.082 386.462 314.743 388.268 307.624 391.559ZM433.7 508.826C416.872 520.423 395.36 531.065 376.939 539.767C378.111 543.771 379.302 548.19 380.638 552.106L388.327 547.601C403.527 539.493 437.472 516.89 449.1 512.477C436.047 507.216 427.267 504.049 413.838 499.821C416.066 505.062 416.534 509.1 417.471 514.643C423.346 512.279 427.612 510.615 433.7 508.826ZM554.686 430.542C541.851 441.268 509.22 467.444 499.214 478.43C498.664 487.516 500.379 493.173 492.259 500.201C482.13 508.968 466.257 512.29 453.316 513.505C456.867 515.433 461.042 517.86 464.74 519.317L471.467 521.926C495.871 501.843 518.337 479.307 542.988 459.47C549.244 454.435 556.093 449.408 562.04 444.078C560.805 440.024 559.552 434.527 556.938 431.385L554.686 430.542ZM463.232 665.173C468.711 665.274 510.789 653.927 523.109 652.162C520.185 647.131 517.133 640.521 512.386 637.471C509.993 642.046 507.952 645.989 505.149 650.367C498.257 649.818 492.255 628.039 482.709 658.808C471.884 652.716 468.171 653.534 463.232 665.173ZM351.757 752.809C379.565 755.216 413.935 758.832 441.225 765.23C441.06 711.322 421.641 644.054 413.844 590.453C412.707 582.636 412.245 548.894 410.352 546.757L408.608 546.621C405.976 548.468 402.876 550.095 402.012 553.086C401.488 576.497 422.84 689.041 409.84 702.401C403.289 709.135 390.549 711.24 382.539 716.185C369.914 723.981 360.617 736.639 347.189 743.301C338.422 747.651 328.706 748.077 319.439 750.672C330.22 751.248 340.994 751.961 351.757 752.809ZM249.226 691.127C229.503 688.778 208.393 686.115 188.53 685.563C202.688 694.658 214.994 705.156 226.108 717.888C229.986 722.33 239.388 738.012 243.431 740.004C243.842 738.639 244.055 738.467 243.94 737.082C245.565 723.031 247.111 704.723 249.226 691.127ZM396.741 555.912C392.664 558.668 384.812 563.697 381.328 566.655C383.035 590.966 385.143 613.688 385.51 638.22C385.785 656.643 385.003 678.908 387.518 696.819C389.675 698.272 391.261 698.045 393.895 698.147C398.065 697.526 403.39 696.889 407.403 695.949C407.851 686.554 398.63 558.257 396.741 555.912ZM242.794 683.676C231.786 673.001 219.584 662.016 204.241 660.201C196.817 659.323 188.456 659.853 180.919 659.698C176.552 659.608 177.246 658.362 176.418 654.702L175.699 655.223C170.031 659.397 171.949 663.021 163.07 665.846C159.841 666.849 156.603 667.822 153.357 668.767C178.404 680.336 198.439 677.125 225.159 681.243C231.05 681.961 236.929 682.772 242.794 683.676ZM411.166 494.045C418.56 495.407 430.087 499.362 435.618 496.321L435.529 494.385C431.413 491.565 407.32 481.165 402.655 480.385C404.762 485.836 407.719 489.369 411.166 494.045Z"/><path fill="#3C9B94" transform="scale(0.488281 0.488281)" d="M587.132 591.551C591.623 591.744 595.64 590.607 600.012 589.62C598.767 604.219 599.687 615.158 597.165 629.893C594.387 612.035 594.143 608.152 587.132 591.551Z"/><path fill="#3C9B94" transform="scale(0.488281 0.488281)" d="M562.794 611.014L563.909 610.826C564.755 611.237 566.645 611.812 567.572 612.048C579.753 615.151 581.058 629.31 583.284 640.066C577.159 630.654 570.053 619.418 562.794 611.014Z"/><path fill="#4EA390" transform="scale(0.488281 0.488281)" d="M556.476 594.308C562.831 600.21 562.789 602.34 563.909 610.826L562.794 611.014C558.677 606.318 554.866 601.684 550.057 597.686L556.476 594.308Z"/><path fill="#1D2458" transform="scale(0.488281 0.488281)" d="M1630.49 165.349C1636.19 181.416 1642.84 226.73 1645.03 244.04C1655.89 244.279 1666.74 244.682 1677.59 245.249C1680.48 230.891 1692.81 179.901 1698.8 168.545C1700.7 185.268 1696.71 232.78 1693.85 249.285C1704.49 252.084 1714.1 254.617 1724.17 259.276C1729.77 247.719 1759.42 199.528 1767.86 190.186C1763.01 210.922 1748 246.909 1739.89 267.346C1747.42 272.565 1758.24 279.768 1765.37 285.37C1785.75 269.583 1807.56 244.469 1830.8 229.865C1816.17 251.17 1795.66 279.178 1778.48 298.166C1787.3 307.899 1792.34 313.598 1799.49 324.749C1825.83 310.564 1846.01 300.852 1873.46 288.547C1854.11 306.683 1829.83 323.06 1810.91 340.543C1813.37 346.654 1822.03 365.193 1823.24 369.948C1851.08 364.407 1879.11 359.838 1907.28 356.252C1884.44 366.811 1853.18 381.277 1829.43 389.486C1831.7 398.719 1832.98 411.075 1833.77 420.746C1859.3 422.653 1891.67 425.673 1916.9 430.434C1889.44 434.644 1861.86 437.999 1834.19 440.494C1833.84 451.321 1832.7 461.501 1831.59 472.251C1856.48 482.056 1884.02 494.94 1908.28 506.344L1824.97 492.883C1821.64 500.54 1817.09 511.955 1813.4 519.11C1827.75 531.506 1845.52 546.022 1859.11 558.807C1854.09 560.024 1841.83 557.657 1835.85 557.431L1836.13 556.892C1834.77 554.422 1807.83 540.537 1803.03 537.956L1790.91 552.743C1783.28 551.494 1762.7 550.829 1754.13 550.461C1789.33 506.628 1808.6 471.422 1803 413.451C1794.25 322.97 1705.31 253.569 1615.74 263.982C1570.44 269.25 1527.68 293.922 1498.93 329.143C1491.57 338.145 1483.53 350.907 1475.3 358.473C1479.2 350.253 1483.79 340.777 1488.95 333.222C1472.52 321.946 1454.9 310.321 1439.99 297.224C1459.05 306.597 1473.68 314.988 1491.98 325.945C1498.67 317.818 1505.52 308.183 1512.11 300.507C1505.82 294.896 1474.42 256.229 1469.79 249.033C1481.63 257.272 1509.29 283.97 1519.24 294.533C1528.86 286.099 1535.95 280.889 1546.91 274.158C1536.25 252.978 1521.93 231.53 1511.88 210.014C1521.86 219.038 1548.67 255.61 1557.08 268.12C1567 262.19 1573.58 258.561 1584.67 255.181C1578.25 231.191 1572.45 207.04 1567.28 182.751C1577.14 195.462 1591.36 235.23 1596.37 251.193C1607.25 248.654 1618.23 246.515 1629.26 244.777C1627.62 229.013 1628.18 181.125 1630.49 165.349Z"/><path fill="#4EA390" transform="scale(0.488281 0.488281)" d="M625.863 586.651C727.765 572.04 840.349 561.796 943.209 554.283C1111.21 541.045 1279.72 535.325 1448.24 537.14C1525.55 537.592 1602.84 540.414 1679.98 545.602C1691.72 546.371 1747.57 552.772 1754.13 550.461C1762.7 550.829 1783.28 551.494 1790.91 552.743C1800.57 554.574 1825.39 556.784 1835.85 557.431C1841.83 557.657 1854.09 560.024 1859.11 558.807C1859.22 558.923 1859.32 559.044 1859.43 559.154C1865.28 564.765 1967.39 571.026 1988.08 578.548C1986.77 578.865 1932.21 573.152 1926.36 572.613C1893.15 569.642 1859.92 566.905 1826.67 564.404C1697.8 554.641 1568.57 550.478 1439.34 551.929C1216.54 553.389 993.986 567.161 772.705 593.182C743.826 596.531 714.986 600.203 686.189 604.198C664.501 607.416 643.092 611.476 621.321 614.384C625.436 604.421 623.004 596.901 624.344 587.072L625.863 586.651Z"/><path fill="#4EA390" transform="scale(0.488281 0.488281)" d="M696.758 630.481C713.368 626.911 742.344 623.825 759.898 621.611C798.977 616.635 838.103 612.038 877.271 607.819C1029.11 591.634 1181.54 581.623 1334.18 577.81C1441.64 574.253 1549.18 574.386 1656.63 578.208L1654.95 581.181C1652.34 581.775 1652.98 581.224 1651.59 582.978C1663.64 585.106 1670.2 581.182 1681.17 585.068C1652.1 585.848 1624.37 584.221 1595.5 584.188C1529.7 584.204 1463.91 585.017 1398.13 586.626C1169.74 592.993 942.106 615.729 716.972 654.658C710.299 644.813 705.941 638.139 696.758 630.481Z"/><path fill="#1D2458" transform="scale(0.488281 0.488281)" d="M380.436 230C388.358 229.505 439.612 255.097 450.659 258.721C454.204 259.884 494.41 277.457 495.715 278.579L495.035 280.843C489.077 286.802 474.058 291.665 465.703 294.872C470.008 299.585 484.392 320.499 483.535 326.729C480.636 331.09 476.726 334.816 471.253 332.856C466.264 326.023 463.407 306.388 459.781 296.622C450.063 300.238 442.836 302.376 432.943 305.11C434.306 309.398 437.342 313.245 437.247 317.33L434.712 318.368C405.821 305.65 378.786 300.138 348.091 310.727C343.149 312.432 339.273 314.532 334.048 315.505C328.932 314.165 333.325 313.506 328.95 311.345C320.922 307.379 268.503 290.931 270.057 282.764C280.088 273.936 365.337 236.143 380.436 230Z"/><path fill="#1D2458" transform="scale(0.488281 0.488281)" d="M1578.79 378.904L1603.25 378.976C1593.37 394.193 1576.14 415.295 1564.87 431.314C1578.83 450.224 1592.33 470.456 1606.93 488.705C1614.31 474.573 1617.5 460.509 1623 446.02C1631.47 423.693 1639.3 401.738 1647.14 379.168L1667.25 379.012C1668.72 386.535 1673.21 400.493 1676 407.657C1685.08 429.416 1692.21 451.846 1700.29 473.985C1702.46 479.946 1704.25 485.66 1707.12 491.357L1683.06 491.339C1680.99 482.808 1678.6 476.807 1675.42 468.57C1662.47 468.677 1649.52 468.609 1636.58 468.365C1634.08 475.155 1630.06 483.967 1627.19 490.818L1581.45 490.648C1568.43 474.39 1557.8 456.571 1543.62 439.644C1543.4 456.284 1543.78 473.854 1543.88 490.568C1537.23 490.915 1528.57 490.677 1521.76 490.684L1522.35 379.228L1543.69 379.152C1543.63 394.653 1543.86 410.155 1544.38 425.648C1554.94 409.456 1569.35 394.823 1578.79 378.904ZM1643.13 448.848L1659.25 448.584L1669.19 448.499C1666.98 439.606 1661.12 418.25 1657.09 410.656C1652.24 419.742 1647.94 437.625 1643.13 448.848Z"/><path fill="#1D2458" transform="scale(0.488281 0.488281)" d="M1052.97 378.433C1073.02 378.527 1096.96 379.452 1104.4 402.279C1110.77 421.798 1096.85 436.45 1079.22 441.834C1086.1 452.666 1104.16 481.704 1111.17 490.441L1085.19 490.343C1082.74 487.029 1080.69 483.303 1078.61 479.731C1073.19 473.283 1058.99 450.558 1053.89 442.405L1054.06 490.432C1047.47 490.81 1039.49 490.571 1032.77 490.526L1032.46 379.052L1052.97 378.433ZM1053.29 425.458C1061.87 425.731 1072.53 426.95 1079.76 421.921C1093.92 399.927 1070.02 396.504 1053.66 397.047C1053.58 406.338 1053.66 416.221 1053.29 425.458Z"/><path fill="#1D2458" transform="scale(0.488281 0.488281)" d="M1419.74 378.945L1440.84 378.944C1454.27 400.933 1470.21 426.728 1483.03 448.838C1483.39 425.834 1484.08 402.07 1483.41 379.131L1504.32 379.211C1504.25 390.641 1504.52 486.964 1502.65 490.807L1485.2 490.804C1470.77 468.152 1455.26 440.518 1440.8 416.967C1440.24 437.884 1441.7 468.833 1441.89 490.9L1420.26 490.87L1419.74 378.945Z"/><path fill="#1D2458" transform="scale(0.488281 0.488281)" d="M1120.7 379.245C1127.04 378.951 1133.67 379.153 1140.04 379.232C1148.1 394.409 1173.98 437.022 1184.37 451.046C1183.73 426.992 1184.32 403.218 1184.06 379.174L1204.08 379.108C1203.86 415.704 1203.86 452.301 1204.08 488.897C1200.34 491.851 1191.07 490.762 1185.87 490.633C1179.67 478.227 1168.45 464.008 1160.83 452.048C1154.65 442.345 1148.53 430.84 1141.79 421.852C1142.57 444.336 1141.86 467.819 1141.51 490.385L1120.01 490.414C1119.93 453.356 1120.16 416.299 1120.7 379.245Z"/><path fill="#1D2458" transform="scale(0.488281 0.488281)" d="M741.071 379.126C748.02 378.953 754.973 378.981 761.921 379.211C772.034 409.013 790.318 463.068 803.01 490.48C795.665 491.012 786.912 490.807 779.438 490.81C777.448 484.816 774.956 475.75 770.996 470.817C769.174 468.548 767.32 469.063 764.25 468.866C753.234 468.785 742.217 468.842 731.203 469.036C727.696 475.472 724.848 483.66 722.997 490.746L701.248 490.799C710.283 460.086 729.273 409.849 741.071 379.126ZM736.851 448.057L754.182 448.037L765.354 447.896C763.164 442.503 753.131 414.198 750.868 411.826C747.136 421.098 739.113 439.527 736.851 448.057Z"/><path fill="#1D2458" transform="scale(0.488281 0.488281)" d="M1349.79 379.106L1372.67 378.922C1381.82 413.914 1400.64 456.55 1413.14 490.652C1405.81 490.969 1396.79 490.679 1389.34 490.634C1387.15 484.176 1384.5 475.469 1380.83 469.596C1379.47 467.41 1378.15 467.892 1375.25 467.618C1364.65 467.525 1354.06 467.555 1343.46 467.708C1339.91 474.978 1336.77 483.141 1333.7 490.684C1325.78 490.863 1318.14 490.74 1310.22 490.602C1323.28 457.418 1340.6 413.342 1349.79 379.106ZM1348.75 447.851L1364.59 447.894L1375.25 447.489C1371.01 435.814 1367.64 423.721 1363.12 412.191C1363.12 412.191 1361.42 411.297 1361.24 411.205C1357.88 420.241 1350.69 438.868 1348.75 447.851Z"/><path fill="#1D2458" transform="scale(0.488281 0.488281)" d="M837.853 377.196C858.353 375.663 861.799 380.76 878.026 390.655C856.291 413.696 869.472 401.106 840.924 398.117C836.042 397.606 828.569 405.94 830.453 410.186C835.72 422.054 857.889 423.494 867.232 432.294C885.751 446.484 881.431 469.124 866.32 483.684C860.467 489.23 848.11 491.602 839.471 492.593C823.101 492.425 812.888 485.307 801.959 474.454C807.716 468.987 811.05 465.669 816.073 459.564C823.208 465.277 832.037 473.099 841.846 471.403C849.133 470.143 857.17 464.345 854.658 456.13C851.356 445.332 833.383 443.077 824.786 437.559C817.72 433.3 810.636 426.475 809.053 417.815C804.662 393.795 816.713 382.29 837.853 377.196Z"/><path fill="#1D2458" transform="scale(0.488281 0.488281)" d="M959.955 379.225C979.575 379.043 999.196 379.038 1018.82 379.212L1018.68 398.889L980.653 398.821C981.826 406.369 981.657 415.327 981.727 423.072L1016.88 423.068L1016.6 443.935L980.981 443.908L981.245 453.75C981.519 460.089 981.651 464.654 981.325 471.007L1019.77 470.973L1019.55 490.753C1000.31 491.224 979.417 490.798 960.045 490.779L959.955 379.225Z"/><path fill="#1D2458" transform="scale(0.488281 0.488281)" d="M637.999 379.197C656.969 378.989 676.736 379.298 695.759 379.352L694.882 399.794L658.484 399.741L658.177 423.925L692.194 423.976L692.006 444.854L658.447 444.865L658.493 458.121L658.458 470.199C669.427 470.154 685.784 469.579 696.267 470.562L695.978 490.872L638.089 490.862C638.541 458.107 639.487 411.47 637.999 379.197Z"/><path fill="#1D2458" transform="scale(0.488281 0.488281)" d="M880.581 379.074L950.619 379.107L950.477 398.882L924.718 398.766C924.421 420.917 924.316 443.071 924.402 465.225L924.712 490.882L904.264 490.857C905.197 462.846 904.061 427.301 904.062 398.772L879.987 398.914C880.633 393.338 880.517 384.91 880.581 379.074Z"/><path fill="#1D2458" transform="scale(0.488281 0.488281)" d="M1250.69 379.092L1272.17 379.041L1273.33 470.02L1309.42 469.935C1308.27 476.183 1308.02 483.273 1307.61 489.663C1304.46 491.787 1258.4 490.735 1251.05 490.691C1251.39 453.491 1251.28 416.289 1250.69 379.092Z"/><path fill="#3C9B94" transform="scale(0.488281 0.488281)" d="M1656.63 578.208C1674 578.707 1823.52 584.882 1828.53 589.468C1823.79 589.995 1808.66 589.026 1803.29 588.781C1787.36 588.021 1771.43 587.371 1755.5 586.828C1737.34 586.256 1696.93 587.146 1681.17 585.068C1670.2 581.182 1663.64 585.106 1651.59 582.978C1652.98 581.224 1652.34 581.775 1654.95 581.181L1656.63 578.208Z"/></svg>